<svg width="19" height="19" viewBox="0 0 19 19" fill="none" xmlns="http://www.w3.org/2000/svg">
<path d="M5.75 0C2.5795 0 0 2.5795 0 5.75V13.25C0 16.4205 2.5795 19 5.75 19H13.25C16.4205 19 19 16.4205 19 13.25V5.75C19 2.5795 16.4205 0 13.25 0H5.75ZM14.5 3.5C15.0525 3.5 15.5 3.9475 15.5 4.5C15.5 5.052 15.0525 5.5 14.5 5.5C13.9475 5.5 13.5 5.052 13.5 4.5C13.5 3.9475 13.9475 3.5 14.5 3.5ZM9.5 4.5C12.257 4.5 14.5 6.743 14.5 9.5C14.5 12.257 12.257 14.5 9.5 14.5C6.743 14.5 4.5 12.257 4.5 9.5C4.5 6.743 6.743 4.5 9.5 4.5ZM9.5 6C9.04037 6 8.58525 6.09053 8.16061 6.26642C7.73597 6.44231 7.35013 6.70012 7.02513 7.02513C6.70012 7.35013 6.44231 7.73597 6.26642 8.16061C6.09053 8.58525 6 9.04037 6 9.5C6 9.95963 6.09053 10.4148 6.26642 10.8394C6.44231 11.264 6.70012 11.6499 7.02513 11.9749C7.35013 12.2999 7.73597 12.5577 8.16061 12.7336C8.58525 12.9095 9.04037 13 9.5 13C9.95963 13 10.4148 12.9095 10.8394 12.7336C11.264 12.5577 11.6499 12.2999 11.9749 11.9749C12.2999 11.6499 12.5577 11.264 12.7336 10.8394C12.9095 10.4148 13 9.95963 13 9.5C13 9.04037 12.9095 8.58525 12.7336 8.16061C12.5577 7.73597 12.2999 7.35013 11.9749 7.02513C11.6499 6.70012 11.264 6.44231 10.8394 6.26642C10.4148 6.09053 9.95963 6 9.5 6Z" fill="#67DD0A"/>
</svg>
