<svg width="22" height="22" viewBox="0 0 22 22" fill="none" xmlns="http://www.w3.org/2000/svg">
<path d="M5.72 0.915314C3.07456 0.915314 0.919998 3.06987 0.919998 5.71531V16.2753C0.919998 18.9208 3.07456 21.0753 5.72 21.0753H16.28C18.9254 21.0753 21.08 18.9208 21.08 16.2753V5.71531C21.08 3.06987 18.9254 0.915314 16.28 0.915314H5.72ZM7.64281 4.77594C7.94425 4.7889 8.22108 4.95874 8.38812 5.21938C8.5782 5.51602 8.87319 5.9764 9.25719 6.57688C9.60759 7.12456 9.63202 7.83193 9.31906 8.40313L8.61594 9.40344C8.42586 9.67416 8.38794 10.0207 8.51562 10.3259C8.71434 10.8011 9.09958 11.5315 9.78406 12.2159C10.4685 12.9004 11.1989 13.2857 11.6741 13.4844C11.9793 13.6121 12.3258 13.5741 12.5966 13.3841L13.5969 12.6809C14.1681 12.368 14.8754 12.3929 15.4231 12.7428C16.0236 13.1268 16.484 13.4218 16.7806 13.6119C17.0413 13.7789 17.2111 14.0557 17.2241 14.3572C17.298 16.0679 15.9726 16.7609 15.5872 16.7609C15.3203 16.7609 12.1118 17.1256 8.49312 13.5069C4.8744 9.88816 5.23906 6.67969 5.23906 6.41281C5.23906 6.02737 5.93209 4.70202 7.64281 4.77594Z" fill="#67DD0A"/>
</svg>
